<svg xmlns="http://www.w3.org/2000/svg" viewBox="0 0 150 154.84"><defs><style>.cls-1{fill:#231f20;}.cls-2{fill:#f9b8b9;}</style></defs><title>BlackPink-mini</title><g id="Layer_2" data-name="Layer 2"><g id="Layer_1-2" data-name="Layer 1"><path class="cls-1" d="M130.82,118.88c-6.22,1.61-15.06,1.33-25.62-1.12A151.15,151.15,0,0,0,109,95.63a149.79,149.79,0,0,0,17.24-14.3c1.84,2,3.56,3.94,5.11,5.91,4.51,5.72,7.45,11.07,8.73,15.7a11.37,11.37,0,0,1,5.77.55c-1.18-5.88-4.6-12.54-10.2-19.64-1.68-2.15-3.55-4.29-5.55-6.43,2-2.13,3.87-4.28,5.55-6.42,5.83-7.4,9.3-14.32,10.33-20.37a11.67,11.67,0,0,1-4.11.75,10.71,10.71,0,0,1-1.61-.13C139,56,136,61.61,131.31,67.6c-1.55,2-3.27,4-5.11,5.91A151.88,151.88,0,0,0,109,59.21a151.38,151.38,0,0,0-3.76-22.13c10.43-2.41,19.19-2.72,25.4-1.18a11.76,11.76,0,0,1,3-4.8c-7.53-2.33-17.92-2-29.86.75C98.14,13.43,87.79,1,77.42,0a77.42,77.42,0,0,0,0,154.84c11,0,20.48-12.61,26.32-31.85a81.24,81.24,0,0,0,18.12,2.33,39.32,39.32,0,0,0,12.29-1.74A11.82,11.82,0,0,1,130.82,118.88Zm-21.3-52.44a141.2,141.2,0,0,1,12.84,11,139.63,139.63,0,0,1-12.84,11q.32-5.37.32-11C109.84,73.69,109.73,70,109.52,66.44ZM103,55.13c-3-2-6.17-3.92-9.39-5.78s-6.49-3.62-9.7-5.24a139.23,139.23,0,0,1,16-5.67A140.28,140.28,0,0,1,103,55.13ZM77.42,5.79c7.73,0,15.79,10.17,21,27.41a151,151,0,0,0-21,7.81A150,150,0,0,0,56.37,33.2C61.64,16,69.69,5.79,77.42,5.79ZM54.92,38.44a139.26,139.26,0,0,1,16,5.68q-4.81,2.41-9.7,5.23c-3.25,1.87-6.37,3.81-9.38,5.78A140.28,140.28,0,0,1,54.92,38.44ZM51.83,99.71q4.52,3,9.38,5.79c3.25,1.88,6.49,3.61,9.71,5.23a139.23,139.23,0,0,1-16,5.67A140.28,140.28,0,0,1,51.83,99.71Zm25.59,49.35c-7.73,0-15.79-10.17-21.05-27.42a150.39,150.39,0,0,0,21.05-7.8,150.5,150.5,0,0,0,21.06,7.8C93.21,138.89,85.15,149.06,77.42,149.06ZM99.93,116.4a138.69,138.69,0,0,1-16-5.67c3.22-1.62,6.46-3.35,9.71-5.23s6.36-3.8,9.39-5.79A140.28,140.28,0,0,1,99.93,116.4Zm3.82-23.8c-4.08,2.83-8.37,5.56-12.86,8.15s-9.08,5-13.47,7.07q-6.57-3.1-13.47-7.07c-4.58-2.64-8.87-5.37-12.85-8.13-.4-4.83-.61-9.91-.61-15.2s.21-10.36.61-15.2q6-4.14,12.85-8.13c4.58-2.64,9.08-5,13.46-7.06Q84,50.14,90.89,54.09c4.49,2.59,8.78,5.33,12.86,8.16q.6,7.25.61,15.17C104.36,82.7,104.15,87.77,103.75,92.6Z"/><path class="cls-2" d="M141.83,31.39A8.17,8.17,0,1,0,150,39.56,8.16,8.16,0,0,0,141.83,31.39Z"/><circle class="cls-2" cx="141.83" cy="114.61" r="8.17"/><circle class="cls-2" cx="77.19" cy="77.54" r="10.17"/></g></g></svg>