<svg xmlns="http://www.w3.org/2000/svg" viewBox="0 0 1807.26 400"><defs><style>.cls-1{fill:#231f20;}.cls-2{fill:#f9b8b9;}</style></defs><title>BlackPink3</title><g id="Layer_2" data-name="Layer 2"><g id="Layer_1-2" data-name="Layer 1"><polygon class="cls-1" points="537.29 95.38 503.44 95.38 503.44 41.47 485.84 41.47 485.84 108.98 537.29 108.98 537.29 95.38"/><path class="cls-1" d="M567,108.57a15.5,15.5,0,0,0,6.75-4.4A10.16,10.16,0,0,0,575,102.3a9.48,9.48,0,0,0,1.12,2.43,10.42,10.42,0,0,0,4.81,3.89A18.29,18.29,0,0,0,588,109.9a17.6,17.6,0,0,0,7.46-1.43l1-9.92a9,9,0,0,1-3,.41Q590,99,590,95V76.25a19.32,19.32,0,0,0-2.81-10.69A17.26,17.26,0,0,0,579.08,59a33.19,33.19,0,0,0-12.74-2.2q-11.15,0-17.28,4.4A18.24,18.24,0,0,0,541.49,73l14.73,3.47c.61-2.86,1.72-4.86,3.32-6a9.77,9.77,0,0,1,5.78-1.69,7.06,7.06,0,0,1,5.37,2.1,7.89,7.89,0,0,1,2,5.67V78L555,81.67q-7.15,1.42-10.49,5.06a13.06,13.06,0,0,0-3.32,9.16,13.51,13.51,0,0,0,2.1,7.72,13.07,13.07,0,0,0,6,4.76,23.36,23.36,0,0,0,9.1,1.63A26.42,26.42,0,0,0,567,108.57Zm-7.16-17.85a10.84,10.84,0,0,1,4.55-1.79l8.28-1.73v2.86a9.74,9.74,0,0,1-.71,3.88A7.56,7.56,0,0,1,570,96.65a7.87,7.87,0,0,1-2.82,1.59,10.77,10.77,0,0,1-3.32.51A6.7,6.7,0,0,1,560,97.63a3.84,3.84,0,0,1-1.64-3.38A4.24,4.24,0,0,1,559.85,90.72Z"/><path class="cls-1" d="M617.13,97.67a21.2,21.2,0,0,0,1.89,3.89,18.16,18.16,0,0,0,6.29,6.19,17.15,17.15,0,0,0,8.85,2.25,19.5,19.5,0,0,0,11-3.12,20.65,20.65,0,0,0,7.37-9,34.6,34.6,0,0,0,2.66-14.22,36.09,36.09,0,0,0-2.61-14.47A20.83,20.83,0,0,0,645.36,60a18.43,18.43,0,0,0-10.59-3.17q-7.47,0-11.86,4.15a19.21,19.21,0,0,0-4.2,5.85V36.15H601.32V109h15.24Zm5.93-26.38a7.79,7.79,0,0,1,5.06-1.69,8.42,8.42,0,0,1,7.06,3.32q2.55,3.33,2.56,10.49t-2.56,10.48a8.4,8.4,0,0,1-7.06,3.33,8.18,8.18,0,0,1-5-1.59A9.8,9.8,0,0,1,619.84,91a21.83,21.83,0,0,1-1.13-7.47A21.83,21.83,0,0,1,619.84,76,10.58,10.58,0,0,1,623.06,71.29Z"/><path class="cls-1" d="M701.92,106.88a22.61,22.61,0,0,0,9.51-9.1,28.41,28.41,0,0,0,3.43-14.37A28.41,28.41,0,0,0,711.43,69a22.69,22.69,0,0,0-9.51-9.11,33.37,33.37,0,0,0-28.18,0A22.64,22.64,0,0,0,664.18,69a28.41,28.41,0,0,0-3.43,14.37,28.41,28.41,0,0,0,3.43,14.37,22.56,22.56,0,0,0,9.56,9.1,33.37,33.37,0,0,0,28.18,0ZM679.37,91.54a24.42,24.42,0,0,1-1.13-8.13,24.86,24.86,0,0,1,1.13-8.18,8.87,8.87,0,0,1,3.27-4.61,9,9,0,0,1,5.12-1.43A9.21,9.21,0,0,1,693,70.62a8.87,8.87,0,0,1,3.27,4.61,24.6,24.6,0,0,1,1.13,8.18,24.16,24.16,0,0,1-1.13,8.13,9.1,9.1,0,0,1-3.27,4.6,8.94,8.94,0,0,1-5.21,1.49,8.78,8.78,0,0,1-5.12-1.49A9.1,9.1,0,0,1,679.37,91.54Z"/><path class="cls-1" d="M740,83.2a12.44,12.44,0,0,1,1.59-6.59,10.18,10.18,0,0,1,4.24-3.94,12.6,12.6,0,0,1,5.73-1.33,26.07,26.07,0,0,1,3.84.25,13.62,13.62,0,0,1,2.61.67l1.73-14.32a7.1,7.1,0,0,0-2.2-.82,15.82,15.82,0,0,0-3.32-.31A14.84,14.84,0,0,0,744.47,60a19.26,19.26,0,0,0-5.78,8.9l-.71-11H722.63V109H740Z"/><path class="cls-1" d="M774.8,81.67q-7.15,1.42-10.49,5.06A13.06,13.06,0,0,0,761,95.89a13.51,13.51,0,0,0,2.1,7.72,13.07,13.07,0,0,0,6,4.76,23.36,23.36,0,0,0,9.1,1.63,26.42,26.42,0,0,0,8.65-1.43,15.5,15.5,0,0,0,6.75-4.4,10.16,10.16,0,0,0,1.28-1.87,9.48,9.48,0,0,0,1.12,2.43,10.42,10.42,0,0,0,4.81,3.89,18.29,18.29,0,0,0,7.06,1.28,17.6,17.6,0,0,0,7.46-1.43l1-9.92a9,9,0,0,1-3,.41q-3.58,0-3.58-4V76.25A19.32,19.32,0,0,0,807,65.56,17.26,17.26,0,0,0,798.89,59a33.19,33.19,0,0,0-12.74-2.2q-11.14,0-17.28,4.4A18.24,18.24,0,0,0,761.3,73L776,76.45c.61-2.86,1.72-4.86,3.32-6a9.77,9.77,0,0,1,5.78-1.69,7.06,7.06,0,0,1,5.37,2.1,7.89,7.89,0,0,1,2,5.67V78Zm17,12.27a7.56,7.56,0,0,1-1.94,2.71A7.87,7.87,0,0,1,787,98.24a10.77,10.77,0,0,1-3.32.51,6.7,6.7,0,0,1-3.89-1.12,3.84,3.84,0,0,1-1.64-3.38,4.24,4.24,0,0,1,1.49-3.53,10.84,10.84,0,0,1,4.55-1.79l8.28-1.73v2.86A9.74,9.74,0,0,1,791.78,93.94Z"/><path class="cls-1" d="M823.08,93.64a18,18,0,0,0,2.4,9.51,13.18,13.18,0,0,0,6.55,5.22A28,28,0,0,0,842.1,110a31.29,31.29,0,0,0,8-1,19.6,19.6,0,0,0,6.45-2.86l-1.84-10.74a10,10,0,0,1-3.23,1.68,14,14,0,0,1-4.24.57,7.19,7.19,0,0,1-5-1.59c-1.2-1.06-1.79-2.81-1.79-5.27V70.21h15.24V57.84H840.47V41.57l-17.39,4.81V57.84h-8.8V70.21h8.8Z"/><path class="cls-1" d="M900.25,106.88a22.69,22.69,0,0,0,9.52-9.1,28.51,28.51,0,0,0,3.42-14.37A28.51,28.51,0,0,0,909.77,69a22.78,22.78,0,0,0-9.52-9.11,33.37,33.37,0,0,0-28.18,0A22.64,22.64,0,0,0,862.51,69a28.41,28.41,0,0,0-3.43,14.37,28.41,28.41,0,0,0,3.43,14.37,22.56,22.56,0,0,0,9.56,9.1,33.37,33.37,0,0,0,28.18,0ZM877.7,91.54a24.42,24.42,0,0,1-1.13-8.13,24.86,24.86,0,0,1,1.13-8.18A8.87,8.87,0,0,1,881,70.62a9,9,0,0,1,5.12-1.43,9.21,9.21,0,0,1,5.21,1.43,8.89,8.89,0,0,1,3.28,4.61,24.89,24.89,0,0,1,1.12,8.18,24.44,24.44,0,0,1-1.12,8.13,9.11,9.11,0,0,1-3.28,4.6,8.94,8.94,0,0,1-5.21,1.49A8.78,8.78,0,0,1,881,96.14,9.1,9.1,0,0,1,877.7,91.54Z"/><path class="cls-1" d="M938.35,83.2a12.44,12.44,0,0,1,1.59-6.59,10.24,10.24,0,0,1,4.24-3.94,12.63,12.63,0,0,1,5.73-1.33,26.07,26.07,0,0,1,3.84.25,13.62,13.62,0,0,1,2.61.67l1.46-12,14.39,36,5.93,13.91-1.33,3.17a7.13,7.13,0,0,1-3,3.89,10.21,10.21,0,0,1-4.86,1,19.9,19.9,0,0,1-5.22-.56,12,12,0,0,1-3.89-1.89l-3.47,11.76a22.46,22.46,0,0,0,6.23,2.56,31.85,31.85,0,0,0,7.88.92,25.84,25.84,0,0,0,11-2.15,20.25,20.25,0,0,0,8-6.95A54.37,54.37,0,0,0,995.74,109l18.61-51.14H997.07l-7.88,28.74-2.86,11.25L983.87,87,976,57.84H957.88a7.29,7.29,0,0,0-2-.72,15.85,15.85,0,0,0-3.33-.31A14.84,14.84,0,0,0,942.8,60a19.26,19.26,0,0,0-5.78,8.9l-.71-11H921V109h17.39Z"/><path class="cls-1" d="M1044.63,109H1062V70.21h14.52V57.84H1061V54.26q0-4.09,2.31-5.73a9.9,9.9,0,0,1,5.88-1.64,13.4,13.4,0,0,1,3.58.41,9.54,9.54,0,0,1,2.55,1.13l1.74-10.85a14.76,14.76,0,0,0-4.7-2,28,28,0,0,0-7.37-.87,29,29,0,0,0-7.77,1,18.69,18.69,0,0,0-6.55,3.28,15.08,15.08,0,0,0-4.44,5.72,20.1,20.1,0,0,0-1.59,8.39v4.71h-8.18V70.21h8.18Z"/><path class="cls-1" d="M1129,97.78a28.41,28.41,0,0,0,3.43-14.37A28.41,28.41,0,0,0,1129,69a22.69,22.69,0,0,0-9.51-9.11,33.37,33.37,0,0,0-28.18,0,22.64,22.64,0,0,0-9.56,9.11,28.41,28.41,0,0,0-3.43,14.37,28.41,28.41,0,0,0,3.43,14.37,22.56,22.56,0,0,0,9.56,9.1,33.37,33.37,0,0,0,28.18,0A22.61,22.61,0,0,0,1129,97.78Zm-15.19-6.24a9.1,9.1,0,0,1-3.27,4.6,9,9,0,0,1-5.22,1.49,8.75,8.75,0,0,1-5.11-1.49,9,9,0,0,1-3.27-4.6,24.16,24.16,0,0,1-1.13-8.13,24.6,24.6,0,0,1,1.13-8.18,8.82,8.82,0,0,1,3.27-4.61,9,9,0,0,1,5.11-1.43,9.22,9.22,0,0,1,5.22,1.43,8.87,8.87,0,0,1,3.27,4.61,24.86,24.86,0,0,1,1.13,8.18A24.42,24.42,0,0,1,1113.77,91.54Z"/><path class="cls-1" d="M1177.29,57.94a7.1,7.1,0,0,0-2.2-.82,15.75,15.75,0,0,0-3.32-.31A14.84,14.84,0,0,0,1162,60a19.26,19.26,0,0,0-5.78,8.9l-.71-11h-15.35V109h17.39V83.2a12.44,12.44,0,0,1,1.59-6.59,10.24,10.24,0,0,1,4.24-3.94,12.6,12.6,0,0,1,5.73-1.33,26.07,26.07,0,0,1,3.84.25,13.62,13.62,0,0,1,2.61.67Z"/><path class="cls-1" d="M1389.33,151.47c-3.54,0-6.12.66-7.72,2s-2.4,3.46-2.4,6.39.79,5,2.4,6.29,4.18,2,7.72,2,6-.67,7.67-2,2.46-3.42,2.46-6.29-.82-5.06-2.46-6.39S1392.81,151.47,1389.33,151.47Z"/><polygon class="cls-1" points="531.15 191.77 531.56 204.25 531.46 204.25 526.35 194.22 505.38 157.7 485.84 157.7 485.84 225.21 501.39 225.21 501.39 191.15 500.98 178.67 501.08 178.67 506.2 188.7 527.17 225.21 546.7 225.21 546.7 157.7 531.15 157.7 531.15 191.77"/><path class="cls-1" d="M591.51,201.48a18.07,18.07,0,0,1-.67,5.17,9.3,9.3,0,0,1-1.89,3.58,7.65,7.65,0,0,1-2.87,2,9,9,0,0,1-3.47.67,7.47,7.47,0,0,1-5.53-1.95c-1.29-1.29-1.94-3.58-1.94-6.85V174.07H557.75v34.16q0,6.45,2.25,10.44a13.35,13.35,0,0,0,6.19,5.78,22,22,0,0,0,9.15,1.79A20.49,20.49,0,0,0,586,223.63a17.24,17.24,0,0,0,6.85-8l.52,9.61h15.54V174.07H591.51Z"/><path class="cls-1" d="M651.24,210.08a8,8,0,0,1-2.81,2.81,8.43,8.43,0,0,1-4.25,1,10,10,0,0,1-5.32-1.38,8.84,8.84,0,0,1-3.48-4.5,22.75,22.75,0,0,1-1.22-8.13,25.45,25.45,0,0,1,1.12-8.24,9,9,0,0,1,3.33-4.7,9.55,9.55,0,0,1,5.47-1.49,6.83,6.83,0,0,1,5.47,2.2,13.37,13.37,0,0,1,2.61,6.6l16.06-5.32a17,17,0,0,0-3.63-7.82,20.31,20.31,0,0,0-8.08-5.83,33.12,33.12,0,0,0-12.94-2.2,30.44,30.44,0,0,0-14.07,3.12,22.38,22.38,0,0,0-9.46,9.1A32.32,32.32,0,0,0,620,214a22.18,22.18,0,0,0,9.62,9.11,35.88,35.88,0,0,0,26.59,1.07,21.4,21.4,0,0,0,8.24-5.57,15.66,15.66,0,0,0,3.83-8l-15.65-5A10.9,10.9,0,0,1,651.24,210.08Z"/><path class="cls-1" d="M697.37,214.06a4.52,4.52,0,0,1-3.79-1.43c-.75-.95-1.12-2.55-1.12-4.81V152.39H675.07v57.69q0,8.58,3.68,12.37t11.87,3.79a24.67,24.67,0,0,0,5.83-.72,17,17,0,0,0,4.81-1.84l1.12-10.44c-1,.28-1.77.48-2.45.62A13.21,13.21,0,0,1,697.37,214.06Z"/><path class="cls-1" d="M717,223.07a31.58,31.58,0,0,0,14.57,3.17,33.86,33.86,0,0,0,10.33-1.54,23.72,23.72,0,0,0,8.34-4.55,16.29,16.29,0,0,0,5-7.31l-13.91-4.71a9.19,9.19,0,0,1-3.43,4.3,11,11,0,0,1-6.19,1.53,11.55,11.55,0,0,1-5.93-1.43,9.2,9.2,0,0,1-3.78-4.5,15.54,15.54,0,0,1-1-4h34.9a28.11,28.11,0,0,0,.31-3c.07-1.19.1-2.43.1-3.73a25.42,25.42,0,0,0-3-12.53,21.58,21.58,0,0,0-8.64-8.59,27.89,27.89,0,0,0-13.7-3.12,29.72,29.72,0,0,0-14,3.17,22.56,22.56,0,0,0-9.41,9.05,32.76,32.76,0,0,0,0,28.74A22.46,22.46,0,0,0,717,223.07Zm8.28-36.32a9.85,9.85,0,0,1,5.58-1.53q4.59,0,6.8,3.27a14,14,0,0,1,2,6.14H721a18,18,0,0,1,.77-3.12A9.41,9.41,0,0,1,725.24,186.75Z"/><path class="cls-1" d="M793.47,220.4a10.32,10.32,0,0,0,1.28-1.87,9.71,9.71,0,0,0,1.12,2.44,10.4,10.4,0,0,0,4.81,3.88,18,18,0,0,0,7.05,1.28,17.5,17.5,0,0,0,7.47-1.43l1-9.92a8.93,8.93,0,0,1-3,.41q-3.59,0-3.58-4V192.48a19.24,19.24,0,0,0-2.82-10.69,17.09,17.09,0,0,0-8.08-6.54,32.91,32.91,0,0,0-12.73-2.2q-11.14,0-17.29,4.4a18.3,18.3,0,0,0-7.57,11.76l14.73,3.48c.62-2.87,1.72-4.86,3.33-6A9.84,9.84,0,0,1,785,185a7.06,7.06,0,0,1,5.37,2.1,7.9,7.9,0,0,1,2,5.68v1.46L774.7,197.9q-7.17,1.44-10.49,5.07a13.05,13.05,0,0,0-3.32,9.15,13.51,13.51,0,0,0,2.09,7.72,13.1,13.1,0,0,0,6,4.76,23.32,23.32,0,0,0,9.1,1.64,26.11,26.11,0,0,0,8.64-1.44A15.47,15.47,0,0,0,793.47,220.4Zm-13.76-6.54a3.84,3.84,0,0,1-1.64-3.38,4.22,4.22,0,0,1,1.49-3.52,10.65,10.65,0,0,1,4.55-1.8l8.28-1.72v2.85a9.79,9.79,0,0,1-.71,3.89,7.64,7.64,0,0,1-1.95,2.71,8,8,0,0,1-2.81,1.58,10.54,10.54,0,0,1-3.33.51A6.67,6.67,0,0,1,779.71,213.86Z"/><path class="cls-1" d="M852.64,173.05a14.79,14.79,0,0,0-9.77,3.17,19.13,19.13,0,0,0-5.78,8.9l-.72-11.05H821v51.14h17.39V199.44a12.6,12.6,0,0,1,1.58-6.6,10.33,10.33,0,0,1,4.25-3.94,12.7,12.7,0,0,1,5.73-1.33,24.41,24.41,0,0,1,3.83.26,12.63,12.63,0,0,1,2.61.66l1.74-14.32a7.3,7.3,0,0,0-2.2-.82A15.88,15.88,0,0,0,852.64,173.05Z"/><polygon class="cls-1" points="921.07 225.21 921.07 171.31 943.06 171.31 943.06 157.7 881.38 157.7 881.38 171.31 903.47 171.31 903.47 225.21 921.07 225.21"/><path class="cls-1" d="M978.25,176.17a27.9,27.9,0,0,0-13.71-3.12,29.68,29.68,0,0,0-14,3.17,22.45,22.45,0,0,0-9.41,9.05,32.67,32.67,0,0,0,0,28.74,22.38,22.38,0,0,0,9.51,9.06,31.63,31.63,0,0,0,14.58,3.17,33.91,33.91,0,0,0,10.33-1.54,23.76,23.76,0,0,0,8.33-4.55,16.13,16.13,0,0,0,5-7.31L975,208.13a9.23,9.23,0,0,1-3.42,4.3,11.06,11.06,0,0,1-6.19,1.53,11.5,11.5,0,0,1-5.93-1.43,9.22,9.22,0,0,1-3.79-4.5,16,16,0,0,1-1-4h34.9a28.41,28.41,0,0,0,.3-3c.07-1.19.11-2.43.11-3.73a25.53,25.53,0,0,0-3-12.53A21.58,21.58,0,0,0,978.25,176.17ZM959,186.75a9.88,9.88,0,0,1,5.58-1.53q4.61,0,6.8,3.27a14,14,0,0,1,2,6.14H954.71a17.13,17.13,0,0,1,.78-3.12A9.34,9.34,0,0,1,959,186.75Z"/><path class="cls-1" d="M1029.49,210.08a8,8,0,0,1-2.81,2.81,8.41,8.41,0,0,1-4.25,1,10,10,0,0,1-5.32-1.38,8.83,8.83,0,0,1-3.47-4.5,22.51,22.51,0,0,1-1.23-8.13,25.45,25.45,0,0,1,1.12-8.24,9,9,0,0,1,3.33-4.7,9.55,9.55,0,0,1,5.47-1.49,6.83,6.83,0,0,1,5.47,2.2,13.37,13.37,0,0,1,2.61,6.6l16.06-5.32a17,17,0,0,0-3.63-7.82,20.24,20.24,0,0,0-8.08-5.83,33.12,33.12,0,0,0-12.94-2.2,30.44,30.44,0,0,0-14.07,3.12,22.38,22.38,0,0,0-9.46,9.1,32.32,32.32,0,0,0,0,28.74,22.18,22.18,0,0,0,9.62,9.11,35.88,35.88,0,0,0,26.59,1.07,21.33,21.33,0,0,0,8.24-5.57,15.58,15.58,0,0,0,3.83-8l-15.65-5A10.9,10.9,0,0,1,1029.49,210.08Z"/><path class="cls-1" d="M1096.33,175.09a19.84,19.84,0,0,0-9.25-2,18.07,18.07,0,0,0-9.72,2.6,16.63,16.63,0,0,0-6.44,7.73v-31h-17.39v72.82h17.39v-26.9a16.69,16.69,0,0,1,1.22-6.95,8.31,8.31,0,0,1,3.38-3.89,9.09,9.09,0,0,1,4.6-1.23,6.94,6.94,0,0,1,5.27,2.1q2,2.1,2,7.62v29.25h17.39V191.15a20.18,20.18,0,0,0-2.25-10A14.88,14.88,0,0,0,1096.33,175.09Z"/><path class="cls-1" d="M1157.7,175.09a19.84,19.84,0,0,0-9.25-2,20.16,20.16,0,0,0-8.85,1.89,16.83,16.83,0,0,0-6.55,5.58,19.16,19.16,0,0,0-2.07,3.83l-.54-10.28H1114.9v51.14h17.39v-27.1a16,16,0,0,1,1.22-6.86,8.13,8.13,0,0,1,3.38-3.73,9.45,9.45,0,0,1,4.6-1.17,7.1,7.1,0,0,1,5.22,2q2,2,2,7.37v29.45h17.39V191.15a20.18,20.18,0,0,0-2.25-10A14.88,14.88,0,0,0,1157.7,175.09Z"/><path class="cls-1" d="M1224.29,214a31.82,31.82,0,0,0,0-28.74,22.61,22.61,0,0,0-9.51-9.1,33.37,33.37,0,0,0-28.18,0,22.56,22.56,0,0,0-9.56,9.1,31.82,31.82,0,0,0,0,28.74,22.58,22.58,0,0,0,9.56,9.11,33.37,33.37,0,0,0,28.18,0A22.63,22.63,0,0,0,1224.29,214Zm-15.19-6.24a9.13,9.13,0,0,1-3.27,4.61,9,9,0,0,1-5.22,1.48,8.82,8.82,0,0,1-5.11-1.48,9.07,9.07,0,0,1-3.27-4.61,24.16,24.16,0,0,1-1.13-8.13,24.6,24.6,0,0,1,1.13-8.18,8.79,8.79,0,0,1,3.27-4.6,8.94,8.94,0,0,1,5.11-1.44,9.15,9.15,0,0,1,5.22,1.44,8.84,8.84,0,0,1,3.27,4.6,24.86,24.86,0,0,1,1.13,8.18A24.42,24.42,0,0,1,1209.1,207.77Z"/><path class="cls-1" d="M1257.59,214.06a4.52,4.52,0,0,1-3.79-1.43c-.75-.95-1.12-2.55-1.12-4.81V152.39h-17.39v57.69q0,8.58,3.68,12.37t11.87,3.79a24.59,24.59,0,0,0,5.82-.72,16.85,16.85,0,0,0,4.81-1.84l1.13-10.44c-1,.28-1.78.48-2.46.62A13,13,0,0,1,1257.59,214.06Z"/><path class="cls-1" d="M1305.4,176.17a33.37,33.37,0,0,0-28.18,0,22.56,22.56,0,0,0-9.56,9.1,31.82,31.82,0,0,0,0,28.74,22.58,22.58,0,0,0,9.56,9.11,33.37,33.37,0,0,0,28.18,0,22.72,22.72,0,0,0,9.52-9.11,31.9,31.9,0,0,0,0-28.74A22.69,22.69,0,0,0,1305.4,176.17Zm-5.67,31.6a9.14,9.14,0,0,1-3.28,4.61,9,9,0,0,1-5.21,1.48,8.87,8.87,0,0,1-5.12-1.48,9.13,9.13,0,0,1-3.27-4.61,24.44,24.44,0,0,1-1.12-8.13,24.89,24.89,0,0,1,1.12-8.18,8.84,8.84,0,0,1,3.27-4.6,9,9,0,0,1,5.12-1.44,9.14,9.14,0,0,1,5.21,1.44,8.86,8.86,0,0,1,3.28,4.6,24.89,24.89,0,0,1,1.12,8.18A24.44,24.44,0,0,1,1299.73,207.77Z"/><path class="cls-1" d="M1373.88,171.72c.41,0,.82,0,1.23.05a5.38,5.38,0,0,1,1.23.25l-1.43-11.66a4.07,4.07,0,0,0-.87-.1h-.77a13,13,0,0,0-8.13,2.46,14.51,14.51,0,0,0-4.76,6.34,21.8,21.8,0,0,0-1.33,5.24,42.41,42.41,0,0,0-10.74-1.25,38.86,38.86,0,0,0-13.4,2,18.25,18.25,0,0,0-8.43,5.88,15.18,15.18,0,0,0-2.92,9.47q0,8.28,6.29,12.78a19.17,19.17,0,0,0,2,1.21,14.29,14.29,0,0,0-4.27,2.27,9.7,9.7,0,0,0-3.89,8,10.1,10.1,0,0,0,3.07,7.77,12.67,12.67,0,0,0,4.42,2.53,14.36,14.36,0,0,0-6.26,2.38,8.34,8.34,0,0,0-3.48,7q0,5.93,6.14,9.41t20,3.47a47.12,47.12,0,0,0,14.88-2.09,21,21,0,0,0,9.77-6.29,16,16,0,0,0,3.48-10.54q0-7-4.76-10.69t-13.66-3.73h-16.26a8.39,8.39,0,0,1-4.29-.87,2.85,2.85,0,0,1-1.44-2.61,3.29,3.29,0,0,1,1.64-2.76,6.27,6.27,0,0,1,1.85-.78,46.9,46.9,0,0,0,9.5.88,39.3,39.3,0,0,0,13.3-2,17.77,17.77,0,0,0,8.44-5.88,16.77,16.77,0,0,0,0-18.88,16.46,16.46,0,0,0-4.67-4,7.1,7.1,0,0,1,1.81-3Q1369.38,171.71,1373.88,171.72Zm-35.08,55.74h18.31c2,0,3.34.29,4.09.87a2.88,2.88,0,0,1,1.13,2.41,3.36,3.36,0,0,1-1.64,2.71,13.08,13.08,0,0,1-4.86,1.84,41.6,41.6,0,0,1-8.13.66,29.32,29.32,0,0,1-9.72-1.27q-3.48-1.29-3.48-3.64a3.25,3.25,0,0,1,1.18-2.55A4.53,4.53,0,0,1,1338.8,227.46Zm14.93-31.6a8.61,8.61,0,0,1-10.89,0,7,7,0,0,1-2.1-5.42,7.17,7.17,0,0,1,2.1-5.53,8.61,8.61,0,0,1,10.89,0,7.06,7.06,0,0,1,2.15,5.53A6.93,6.93,0,0,1,1353.73,195.86Z"/><rect class="cls-1" x="1380.64" y="174.07" width="17.39" height="51.14"/><path class="cls-1" d="M1418.64,223.07a31.58,31.58,0,0,0,14.57,3.17,33.91,33.91,0,0,0,10.33-1.54,23.8,23.8,0,0,0,8.34-4.55,16.29,16.29,0,0,0,5-7.31l-13.91-4.71a9.19,9.19,0,0,1-3.43,4.3,11,11,0,0,1-6.19,1.53,11.52,11.52,0,0,1-5.93-1.43,9.15,9.15,0,0,1-3.78-4.5,15.54,15.54,0,0,1-1-4h34.9a28.11,28.11,0,0,0,.31-3c.07-1.19.1-2.43.1-3.73a25.53,25.53,0,0,0-3-12.53,21.58,21.58,0,0,0-8.64-8.59,27.89,27.89,0,0,0-13.7-3.12,29.72,29.72,0,0,0-14,3.17,22.51,22.51,0,0,0-9.41,9.05,32.76,32.76,0,0,0,0,28.74A22.46,22.46,0,0,0,1418.64,223.07Zm8.28-36.32a9.83,9.83,0,0,1,5.58-1.53q4.59,0,6.8,3.27a14.12,14.12,0,0,1,2,6.14h-18.63a18,18,0,0,1,.77-3.12A9.3,9.3,0,0,1,1426.92,186.75Z"/><path class="cls-1" d="M1508.39,217.59a15.77,15.77,0,0,0,2.66-8.84,13.1,13.1,0,0,0-3.48-9.21q-3.48-3.78-11.35-5.22l-9.31-1.84a12.67,12.67,0,0,1-4.76-1.69,2.77,2.77,0,0,1-.46-4.29,5.37,5.37,0,0,1,2.51-1.33,15.33,15.33,0,0,1,4-.46,19.73,19.73,0,0,1,7.88,1.68,15.94,15.94,0,0,1,6.34,4.86l8.38-9.41a22.38,22.38,0,0,0-9.51-6.54,38.47,38.47,0,0,0-13.7-2.25,32.79,32.79,0,0,0-13.56,2.45,19,19,0,0,0-8,6.24,13.9,13.9,0,0,0-2.6,8,13.17,13.17,0,0,0,4.09,10.08q4.1,3.82,13.81,5.77l7,1.33a10.65,10.65,0,0,1,4.1,1.59,2.88,2.88,0,0,1,1,2.3,3,3,0,0,1-2,2.92,13.73,13.73,0,0,1-5.32.86,20.05,20.05,0,0,1-9.41-2.19,21.59,21.59,0,0,1-6.85-5.48l-8.18,9.62a28.66,28.66,0,0,0,11,7.21,39.9,39.9,0,0,0,14.27,2.51,33.78,33.78,0,0,0,13.4-2.31A17.51,17.51,0,0,0,1508.39,217.59Z"/><path class="cls-1" d="M710.87,268.21a5.81,5.81,0,1,0,4.45,1.69A6,6,0,0,0,710.87,268.21Z"/><path class="cls-1" d="M1383,268.21a5.81,5.81,0,1,0,4.45,1.69A6,6,0,0,0,1383,268.21Z"/><path class="cls-1" d="M507.32,273.94,481,341.45h8.6l7.15-18.72h30.6l7.15,18.72h8.7L517,273.94Zm-7.62,41.12L509,290.82l3-9.11h.2l3.17,9.41,9.15,23.94Z"/><path class="cls-1" d="M590.23,292.45a22,22,0,0,0-11.51-3.17,21.39,21.39,0,0,0-8.18,1.54,18.77,18.77,0,0,0-6.45,4.24A17.88,17.88,0,0,0,561,299.3l-.52-9h-7.16v72.63h8.18V333.4a18.19,18.19,0,0,0,5.78,6,19.77,19.77,0,0,0,11.1,3.12,22.37,22.37,0,0,0,11.66-3.17,23.09,23.09,0,0,0,8.54-9.16,33.46,33.46,0,0,0,0-28.58A23,23,0,0,0,590.23,292.45ZM589.41,330q-4.24,5.33-11.82,5.32a15,15,0,0,1-8.44-2.4,15.74,15.74,0,0,1-5.62-6.8,24.6,24.6,0,0,1-2-10.23,24,24,0,0,1,2.05-10.28,16,16,0,0,1,5.73-6.76,15.37,15.37,0,0,1,8.59-2.4q7.47,0,11.61,5.32t4.14,14.12Q593.65,324.67,589.41,330Z"/><path class="cls-1" d="M652.31,292.45a21.93,21.93,0,0,0-11.5-3.17,21.47,21.47,0,0,0-8.19,1.54,18.82,18.82,0,0,0-6.44,4.24,17.6,17.6,0,0,0-3.06,4.24l-.52-9h-7.16v72.63h8.18V333.4a18.19,18.19,0,0,0,5.78,6,19.77,19.77,0,0,0,11.1,3.12,22.39,22.39,0,0,0,11.66-3.17,23.16,23.16,0,0,0,8.54-9.16,33.55,33.55,0,0,0,0-28.58A22.92,22.92,0,0,0,652.31,292.45ZM651.49,330q-4.23,5.33-11.81,5.32a14.94,14.94,0,0,1-8.44-2.4,15.74,15.74,0,0,1-5.62-6.8,24.6,24.6,0,0,1-2-10.23,23.84,23.84,0,0,1,2-10.28,16,16,0,0,1,5.73-6.76,15.35,15.35,0,0,1,8.59-2.4c5,0,8.85,1.78,11.61,5.32s4.14,8.25,4.14,14.12S654.32,326.45,651.49,330Z"/><path class="cls-1" d="M691.34,335.31c-2.12,0-3.65-.49-4.61-1.48s-1.43-2.78-1.43-5.37V266.78h-8.18v62q0,7,3,10.34t9.26,3.37a21.93,21.93,0,0,0,4-.36A16.09,16.09,0,0,0,697,341l1.33-7.16a30.32,30.32,0,0,1-3.58,1.12A15,15,0,0,1,691.34,335.31Z"/><rect class="cls-1" x="706.78" y="290.3" width="8.18" height="51.14"/><path class="cls-1" d="M765,292.35a23.1,23.1,0,0,0-12.22-3.07,24.83,24.83,0,0,0-12.58,3.17,22.38,22.38,0,0,0-8.7,9.16,33.68,33.68,0,0,0,0,28.53,22,22,0,0,0,8.85,9.16,26.12,26.12,0,0,0,12.94,3.17,27.87,27.87,0,0,0,9-1.38,21.52,21.52,0,0,0,7.06-3.94,21.74,21.74,0,0,0,5-6L768,327.33a16.37,16.37,0,0,1-5.68,5.83,17.44,17.44,0,0,1-9.16,2.15,16.78,16.78,0,0,1-9-2.3,15.16,15.16,0,0,1-5.77-6.7,23,23,0,0,1-1.95-8.08H775a23.34,23.34,0,0,0,.31-2.56c.07-.95.1-2,.1-3.17a25.87,25.87,0,0,0-2.66-11.81A20.16,20.16,0,0,0,765,292.35ZM744,298.74a15.83,15.83,0,0,1,8.64-2.3,14.42,14.42,0,0,1,10.59,4c2.53,2.5,3.83,6,4,10.54H736.73a21.64,21.64,0,0,1,1.6-5.58A15.1,15.1,0,0,1,744,298.74Z"/><path class="cls-1" d="M825.84,298.57a15.54,15.54,0,0,0-5.17-6,18.61,18.61,0,0,0-11-3.27,23.74,23.74,0,0,0-11.87,3.12,23.47,23.47,0,0,0-8.9,9.05,28.79,28.79,0,0,0-3.37,14.43,30.08,30.08,0,0,0,3.17,14.26,22.7,22.7,0,0,0,8.49,9.16,22.37,22.37,0,0,0,11.66,3.17,21.57,21.57,0,0,0,8.34-1.64,17.57,17.57,0,0,0,6.64-4.75,14.06,14.06,0,0,0,2.47-4.16l.55,9.53H834V266.78h-8.18Zm-2,27.28a15.87,15.87,0,0,1-5.62,7,14.86,14.86,0,0,1-8.54,2.46q-7.57,0-11.77-5.32t-4.19-14.11q0-8.81,4.3-14.12t12.07-5.32a14.49,14.49,0,0,1,13.75,8.7,23,23,0,0,1,2,10A26.28,26.28,0,0,1,823.84,325.85Z"/><path class="cls-1" d="M906.65,333.78a11.87,11.87,0,0,1-5.12,1A8.21,8.21,0,0,1,896,333c-1.43-1.23-2.15-3.1-2.15-5.63v-30h18.62V290.3H893.86V275.78L885.68,278V290.3H875.45v7.06h10.23v31.4a14.64,14.64,0,0,0,2.09,7.93,11.53,11.53,0,0,0,5.37,4.4,19,19,0,0,0,7.27,1.38,20.7,20.7,0,0,0,7.41-1.23,17.38,17.38,0,0,0,5.58-3.37L910.53,331A13.94,13.94,0,0,1,906.65,333.78Z"/><path class="cls-1" d="M956.61,292.45a27.47,27.47,0,0,0-25.62,0,22.23,22.23,0,0,0-8.8,9.16,33.68,33.68,0,0,0,0,28.53,22.17,22.17,0,0,0,8.8,9.16,27.47,27.47,0,0,0,25.62,0,22.24,22.24,0,0,0,8.75-9.16,33.68,33.68,0,0,0,0-28.53A22.3,22.3,0,0,0,956.61,292.45Zm1.74,33.86a15.22,15.22,0,0,1-5.68,6.75,18,18,0,0,1-17.79,0,15.22,15.22,0,0,1-5.68-6.75,28.35,28.35,0,0,1,0-20.92,15.25,15.25,0,0,1,5.68-6.7,18,18,0,0,1,17.79,0,15.25,15.25,0,0,1,5.68,6.7,28.35,28.35,0,0,1,0,20.92Z"/><path class="cls-1" d="M1037.57,333.78a11.82,11.82,0,0,1-5.11,1,8.24,8.24,0,0,1-5.53-1.84c-1.43-1.23-2.15-3.1-2.15-5.63v-30h18.62V290.3h-18.62V275.78L1016.6,278V290.3h-10.23v7.06h10.23v31.4a14.73,14.73,0,0,0,2.1,7.93,11.53,11.53,0,0,0,5.37,4.4,19,19,0,0,0,7.26,1.38,20.72,20.72,0,0,0,7.42-1.23,17.44,17.44,0,0,0,5.57-3.37l-2.86-6.86A14,14,0,0,1,1037.57,333.78Z"/><path class="cls-1" d="M1088.4,291.38a23.41,23.41,0,0,0-10-2.1,22.39,22.39,0,0,0-9.61,2.05,15.69,15.69,0,0,0-7.06,6.65v-31.2h-8.18v74.67h8.18V314.34q0-6.54,2.4-10.48a14.21,14.21,0,0,1,6.09-5.68,17.09,17.09,0,0,1,7.36-1.74,12.74,12.74,0,0,1,9,3.33q3.63,3.32,3.63,11.81v29.87h8.19V308.72a20.26,20.26,0,0,0-2.71-11A16.76,16.76,0,0,0,1088.4,291.38Z"/><path class="cls-1" d="M1147.88,292.35a23.1,23.1,0,0,0-12.22-3.07,24.85,24.85,0,0,0-12.58,3.17,22.44,22.44,0,0,0-8.7,9.16,33.68,33.68,0,0,0,0,28.53,22.1,22.1,0,0,0,8.85,9.16,26.14,26.14,0,0,0,12.94,3.17,27.87,27.87,0,0,0,9-1.38,21.4,21.4,0,0,0,12-10l-6.44-3.79a16.2,16.2,0,0,1-5.68,5.83,17.41,17.41,0,0,1-9.15,2.15,16.76,16.76,0,0,1-9-2.3,15.12,15.12,0,0,1-5.78-6.7,23,23,0,0,1-1.94-8.08h38.56a23.5,23.5,0,0,0,.3-2.56c.07-.95.11-2,.11-3.17a25.87,25.87,0,0,0-2.66-11.81A20.25,20.25,0,0,0,1147.88,292.35Zm-21.07,6.39a15.84,15.84,0,0,1,8.65-2.3,14.4,14.4,0,0,1,10.58,4c2.54,2.5,3.83,6,4,10.54h-30.44a21.64,21.64,0,0,1,1.61-5.58A15.08,15.08,0,0,1,1126.81,298.74Z"/><polygon class="cls-1" points="1214.32 311.07 1244.8 311.07 1244.8 303.4 1214.32 303.4 1214.32 281.61 1253.49 281.61 1253.49 273.94 1206.13 273.94 1206.13 341.45 1255.03 341.45 1255.03 333.78 1214.32 333.78 1214.32 311.07"/><path class="cls-1" d="M1302.69,291.38a23.41,23.41,0,0,0-10-2.1,25.23,25.23,0,0,0-7.52,1.13,16.89,16.89,0,0,0-6.4,3.63,16.15,16.15,0,0,0-3.28,4.27l-.5-8h-7.16v51.15H1276V314.24q0-6.54,2.41-10.43a14.3,14.3,0,0,1,6.08-5.63,17.13,17.13,0,0,1,7.37-1.74,12.76,12.76,0,0,1,9,3.33q3.63,3.32,3.63,11.81v29.87h8.18V308.72a20.17,20.17,0,0,0-2.71-11A16.79,16.79,0,0,0,1302.69,291.38Z"/><polygon class="cls-1" points="1344.93 333.16 1328.77 290.3 1319.46 290.3 1340.74 341.45 1348.92 341.45 1370.2 290.3 1361.61 290.3 1344.93 333.16"/><rect class="cls-1" x="1378.89" y="290.3" width="8.19" height="51.14"/><path class="cls-1" d="M1428.19,289.28a20.19,20.19,0,0,0-10.07,2.35,15,15,0,0,0-6.29,7.06l-1.13-8.39h-6.65v51.15h8.19V313.83a18.68,18.68,0,0,1,2.15-9.46,14.65,14.65,0,0,1,5.36-5.58,12.89,12.89,0,0,1,6.4-1.84,25.81,25.81,0,0,1,3.78.21,12.65,12.65,0,0,1,2.46.61l1.43-7.47a7.71,7.71,0,0,0-2.71-.81A22.39,22.39,0,0,0,1428.19,289.28Z"/><path class="cls-1" d="M1476.11,292.45a27.47,27.47,0,0,0-25.62,0,22.14,22.14,0,0,0-8.79,9.16,33.59,33.59,0,0,0,0,28.53,22.08,22.08,0,0,0,8.79,9.16,27.47,27.47,0,0,0,25.62,0,22.18,22.18,0,0,0,8.75-9.16,33.68,33.68,0,0,0,0-28.53A22.24,22.24,0,0,0,1476.11,292.45Zm1.74,33.86a15.2,15.2,0,0,1-5.67,6.75,18,18,0,0,1-17.8,0,15.29,15.29,0,0,1-5.68-6.75,28.49,28.49,0,0,1,0-20.92,15.31,15.31,0,0,1,5.68-6.7,18,18,0,0,1,17.8,0,15.23,15.23,0,0,1,5.67,6.7,28.35,28.35,0,0,1,0,20.92Z"/><path class="cls-1" d="M1536.31,291.38a23.41,23.41,0,0,0-10-2.1,25.23,25.23,0,0,0-7.52,1.13,16.89,16.89,0,0,0-6.4,3.63,16.15,16.15,0,0,0-3.28,4.27l-.5-8h-7.16v51.15h8.18V314.24q0-6.54,2.41-10.43a14.3,14.3,0,0,1,6.08-5.63,17.13,17.13,0,0,1,7.37-1.74,12.76,12.76,0,0,1,9,3.33q3.63,3.32,3.63,11.81v29.87h8.18V308.72a20.17,20.17,0,0,0-2.71-11A16.79,16.79,0,0,0,1536.31,291.38Z"/><path class="cls-1" d="M1631.48,291.33a22,22,0,0,0-9.35-2.05,22.86,22.86,0,0,0-6.7,1.08,20.93,20.93,0,0,0-6.5,3.27,14.75,14.75,0,0,0-4.6,5.68,16.49,16.49,0,0,0-7.37-7.57,22.12,22.12,0,0,0-10.23-2.46,20.88,20.88,0,0,0-9.15,2.15,16.76,16.76,0,0,0-7.21,6.85l-.51-8h-7.16v51.15h8.18V314.14q0-6.34,2.35-10.23a14.68,14.68,0,0,1,5.89-5.68,15.22,15.22,0,0,1,6.9-1.79,12.5,12.5,0,0,1,8.59,3.07q3.48,3.08,3.48,10v31.91h8.18v-28a19,19,0,0,1,2.1-9.31,14.44,14.44,0,0,1,5.57-5.73,15.13,15.13,0,0,1,7.47-1.94,12.5,12.5,0,0,1,8.59,3.07q3.48,3.08,3.48,10v31.91h8.18V308.72q0-6.75-2.86-11.05A17.37,17.37,0,0,0,1631.48,291.33Z"/><path class="cls-1" d="M1691.22,292.35a23.12,23.12,0,0,0-12.22-3.07,24.89,24.89,0,0,0-12.59,3.17,22.35,22.35,0,0,0-8.69,9.16,33.68,33.68,0,0,0,0,28.53,22,22,0,0,0,8.85,9.16,26.09,26.09,0,0,0,12.94,3.17,27.91,27.91,0,0,0,9-1.38,21.4,21.4,0,0,0,12-10l-6.45-3.79a16.26,16.26,0,0,1-5.67,5.83,17.47,17.47,0,0,1-9.16,2.15,16.76,16.76,0,0,1-9-2.3,15.18,15.18,0,0,1-5.78-6.7,23,23,0,0,1-1.94-8.08h38.56a23.34,23.34,0,0,0,.31-2.56c.07-.95.1-2,.1-3.17a25.87,25.87,0,0,0-2.66-11.81A20.22,20.22,0,0,0,1691.22,292.35Zm-21.07,6.39a15.83,15.83,0,0,1,8.64-2.3,14.44,14.44,0,0,1,10.59,4c2.53,2.5,3.83,6,4,10.54h-30.44a21.25,21.25,0,0,1,1.6-5.58A15.1,15.1,0,0,1,1670.15,298.74Z"/><path class="cls-1" d="M1750,291.38a23.41,23.41,0,0,0-10-2.1,25.23,25.23,0,0,0-7.52,1.13,16.77,16.77,0,0,0-6.39,3.63,16.18,16.18,0,0,0-3.29,4.27l-.5-8h-7.16v51.15h8.18V314.24q0-6.54,2.41-10.43a14.3,14.3,0,0,1,6.08-5.63,17.13,17.13,0,0,1,7.37-1.74,12.76,12.76,0,0,1,8.95,3.33q3.63,3.32,3.63,11.81v29.87h8.18V308.72a20.17,20.17,0,0,0-2.71-11A16.74,16.74,0,0,0,1750,291.38Z"/><path class="cls-1" d="M1804.4,331a14,14,0,0,1-3.89,2.77,11.79,11.79,0,0,1-5.11,1,8.26,8.26,0,0,1-5.53-1.84c-1.43-1.23-2.14-3.1-2.14-5.63v-30h18.61V290.3h-18.61V275.78l-8.19,2.25V290.3h-10.22v7.06h10.22v31.4a14.73,14.73,0,0,0,2.1,7.93,11.53,11.53,0,0,0,5.37,4.4,19,19,0,0,0,7.26,1.38,20.72,20.72,0,0,0,7.42-1.23,17.33,17.33,0,0,0,5.57-3.37Z"/><path class="cls-1" d="M337.94,307.1c-16.06,4.16-38.91,3.42-66.2-2.89A388.92,388.92,0,0,0,281.47,247,390.82,390.82,0,0,0,326,210.09c4.75,5.09,9.18,10.19,13.19,15.27,11.65,14.79,19.24,28.61,22.55,40.56a29.64,29.64,0,0,1,4.64-.39,30.36,30.36,0,0,1,10.26,1.81c-3-15.19-11.87-32.41-26.33-50.75C346,211.06,341.15,205.52,336,200c5.18-5.52,10-11.06,14.35-16.59,15.06-19.11,24-37,26.67-52.62a29.3,29.3,0,0,1-14.78,1.61c-3,12.32-10.81,26.76-23,42.24-4,5.08-8.44,10.18-13.19,15.27A390.82,390.82,0,0,0,281.47,153a388.92,388.92,0,0,0-9.73-57.17c26.95-6.24,49.59-7,65.62-3.05a30.65,30.65,0,0,1,7.73-12.41c-19.46-6-46.29-5.24-77.12,1.94C253.52,34.69,226.79,2.55,200,0,89.72,0,0,89.72,0,200S89.72,400,200,400c28.3,0,52.89-32.59,68-82.29,17,4,32.81,6,46.81,6,12,0,22.72-1.49,31.76-4.51A30.55,30.55,0,0,1,337.94,307.1Zm-55-135.46A364.25,364.25,0,0,1,316.09,200a364.25,364.25,0,0,1-33.17,28.36q.81-13.87.83-28.36T282.92,171.64Zm-16.81-29.22q-11.73-7.72-24.24-14.95T216.8,114a358.49,358.49,0,0,1,41.33-14.65A359.15,359.15,0,0,1,266.11,142.42ZM200,15c20,0,40.78,26.27,54.38,70.81A387.6,387.6,0,0,0,200,105.93a387.6,387.6,0,0,0-54.38-20.17C159.22,41.22,180,15,200,15ZM141.87,99.3A361.68,361.68,0,0,1,183.18,114q-12.47,6.25-25.05,13.5t-24.24,14.95A359.7,359.7,0,0,1,141.87,99.3Zm-8,158.28q11.66,7.65,24.24,14.95c8.39,4.85,16.77,9.32,25.08,13.51a360.51,360.51,0,0,1-41.34,14.65A359.15,359.15,0,0,1,133.89,257.58ZM200,385.05c-20,0-40.79-26.28-54.38-70.83A387.75,387.75,0,0,0,200,294.08a387.28,387.28,0,0,0,54.38,20.14C240.79,358.77,220,385.05,200,385.05Zm58.13-84.36A360.51,360.51,0,0,1,216.79,286c8.31-4.19,16.68-8.66,25.08-13.51s16.42-9.8,24.24-14.95A359.15,359.15,0,0,1,258.13,300.69ZM268,239.2c-10.53,7.31-21.63,14.37-33.22,21.06C223,267.1,211.33,273.17,200,278.53c-11.33-5.36-23-11.43-34.79-18.27s-22.91-13.86-33.22-21c-1-12.48-1.57-25.59-1.57-39.26s.55-26.78,1.57-39.26q15.47-10.71,33.22-21c11.83-6.83,23.45-12.9,34.77-18.26q17,8,34.81,18.26c11.59,6.69,22.69,13.75,33.22,21.06,1,12.47,1.57,25.56,1.57,39.2S269,226.73,268,239.2Z"/><path class="cls-2" d="M178.76,174.72a22,22,0,1,0,15.55,6.44A21.88,21.88,0,0,0,178.76,174.72Z"/><path class="cls-2" d="M366.39,81.09a21.1,21.1,0,1,0,21.1,21.09A21.1,21.1,0,0,0,366.39,81.09Z"/><circle class="cls-2" cx="366.39" cy="296.06" r="21.1"/><path class="cls-2" d="M209.56,190.44a31.13,31.13,0,0,1,16,8.58,30.81,30.81,0,0,1,3,3.5c.24-.23.5-.43.73-.67a22,22,0,1,0-31.08-31.08c-.23.22-.43.47-.65.71a29.81,29.81,0,0,1,3.48,3A31.13,31.13,0,0,1,209.56,190.44Z"/><path class="cls-2" d="M218.84,205.69A21.89,21.89,0,0,0,210,200.3a31.37,31.37,0,0,1-27.61,27.6,22,22,0,1,0,36.48-22.21Z"/></g></g></svg>